<svg version="1.1" id="Слой_1" xmlns="http://www.w3.org/2000/svg" x="0" y="0" viewBox="0 0 700.3 134.8" xml:space="preserve"><style>.st0{fill:#fff}.st1{fill:#12c0dd}</style><path class="st0" d="M79.1 85.3c0-4.2 2.6-8.1 6.6-9.4 3.4-1.1 6.9-.1 9.4 2.1 1.3 1.2 3.1 1.5 4.6.6l11.9-6.9c-4.7-8.2-13.5-13.3-23-13.3C73.9 58.4 62 70.3 62 84.9v49.4h17v-26.6h18.3V93.5H79.1v-8.2zM53.8 107.7H33.9c-3 0-5.3-2.4-5.3-5.3v-8.8h25.3v14.1z"/><path class="st1" d="M117.6 23.3L59.6 0 1.7 23.3c-2.3.9-2.3 4.2 0 5.1l13.5 5.4v26l1.9 2C18.2 63.1 29 74 53.8 74V59.8c-13.5 0-21.1-3.9-24.4-6.1V39.5l30.3 12.2 57.9-23.3c2.3-.9 2.3-4.2 0-5.1zm-58 13.1L33.4 25.8l26.2-10.5 26.2 10.5-26.2 10.6z"/><g><path class="st0" d="M114.3 134.3V80.4h9.6c.8 0 1.5.1 2 .2s1 .4 1.4.6c.4.3.6.7.8 1.2.2.5.4 1.1.5 1.8l.9 5c2-3.1 4.2-5.5 6.7-7.2 2.5-1.8 5.1-2.7 8.1-2.7 2.5 0 4.4.6 5.9 1.8L148 93c-.1.7-.4 1.2-.8 1.5-.4.3-1 .4-1.7.4-.6 0-1.3-.1-2.1-.2-.8-.2-1.8-.2-3-.2-4.2 0-7.6 2.3-10 6.8v33.1h-16.1zM181.3 79.6c4.1 0 7.8.6 11.2 1.9 3.4 1.3 6.2 3.1 8.7 5.5s4.3 5.3 5.6 8.7c1.3 3.4 2 7.3 2 11.5 0 4.3-.7 8.2-2 11.6-1.3 3.5-3.2 6.4-5.6 8.8-2.4 2.4-5.3 4.3-8.7 5.6-3.4 1.3-7.1 2-11.2 2s-7.9-.7-11.3-2c-3.4-1.3-6.3-3.2-8.7-5.6-2.4-2.4-4.3-5.3-5.7-8.8-1.3-3.5-2-7.3-2-11.6s.7-8.1 2-11.5c1.3-3.4 3.2-6.3 5.7-8.7 2.4-2.4 5.4-4.2 8.7-5.5 3.4-1.3 7.1-1.9 11.3-1.9zm0 43.6c3.7 0 6.4-1.3 8.2-3.9 1.8-2.6 2.6-6.6 2.6-11.9 0-5.3-.9-9.3-2.6-11.9-1.8-2.6-4.5-3.9-8.2-3.9-3.8 0-6.6 1.3-8.4 3.9-1.8 2.6-2.7 6.6-2.7 11.9 0 5.3.9 9.3 2.7 11.9s4.5 3.9 8.4 3.9zM217.6 134.3V80.4h10c1 0 1.8.2 2.5.7.7.5 1.2 1.1 1.4 2l.9 3.1c1-1 2.1-1.9 3.2-2.7 1.1-.8 2.3-1.5 3.6-2.1 1.3-.6 2.6-1 4.1-1.4 1.5-.3 3.1-.5 4.8-.5 2.9 0 5.6.5 7.8 1.5 2.3 1 4.2 2.4 5.7 4.3 1.6 1.8 2.7 4 3.5 6.5s1.2 5.2 1.2 8.2v34.3h-16.1V100c0-2.6-.6-4.7-1.8-6.2-1.2-1.5-3-2.2-5.4-2.2-1.8 0-3.4.4-5 1.1-1.6.8-3.1 1.8-4.5 3.1v38.4h-15.9zM296.8 135.2c-2.6 0-4.8-.4-6.8-1.1s-3.6-1.8-4.9-3.2-2.3-3-3-5c-.7-1.9-1-4.1-1-6.5V91.5h-4.6c-.8 0-1.5-.3-2.1-.8-.6-.5-.9-1.3-.9-2.4V82l8.6-1.7 3.2-13.2c.4-1.7 1.6-2.5 3.5-2.5h8.4v15.8h13.1v11h-13.1v26.8c0 1.2.3 2.3.9 3.1.6.8 1.5 1.2 2.6 1.2.6 0 1.1-.1 1.5-.2.4-.1.7-.3 1-.4.3-.2.6-.3.8-.4s.6-.2.9-.2c.5 0 .9.1 1.2.3.3.2.6.6.9 1.1l4.9 7.6c-2.1 1.6-4.4 2.7-7 3.5-2.6 1-5.3 1.4-8.1 1.4zM342.6 79.6c3.6 0 6.8.6 9.8 1.7 3 1.1 5.5 2.7 7.6 4.8 2.1 2.1 3.8 4.7 5 7.8 1.2 3.1 1.8 6.5 1.8 10.4 0 1.2-.1 2.2-.2 3-.1.8-.3 1.4-.6 1.8-.3.5-.7.8-1.1.9-.5.2-1.1.3-1.8.3H332c.5 4.5 1.9 7.8 4.1 9.8 2.2 2 5.1 3 8.6 3 1.9 0 3.5-.2 4.8-.7 1.4-.5 2.6-1 3.6-1.5 1.1-.6 2-1.1 2.9-1.5.9-.5 1.8-.7 2.8-.7 1.3 0 2.3.5 2.9 1.4l4.7 5.8c-1.7 1.9-3.5 3.5-5.4 4.7s-3.9 2.1-5.9 2.8c-2 .7-4.1 1.1-6.1 1.4-2 .3-4 .4-5.8.4-3.8 0-7.3-.6-10.6-1.8-3.3-1.2-6.2-3.1-8.7-5.5-2.5-2.4-4.4-5.4-5.9-9.1-1.4-3.6-2.2-7.8-2.2-12.6 0-3.6.6-7 1.8-10.2 1.2-3.2 3-6.1 5.3-8.5 2.3-2.4 5.1-4.4 8.4-5.8 3.5-1.4 7.2-2.1 11.3-2.1zm.3 11.1c-3.1 0-5.5.9-7.2 2.6-1.7 1.8-2.9 4.3-3.4 7.6h20.1c0-1.3-.2-2.5-.5-3.7-.3-1.2-.9-2.3-1.6-3.3-.7-1-1.7-1.7-2.9-2.3s-2.7-.9-4.5-.9zM376.1 134.3V80.4h10c1 0 1.8.2 2.5.7.7.5 1.2 1.1 1.4 2l.9 3.1c1-1 2.1-1.9 3.2-2.7 1.1-.8 2.3-1.5 3.6-2.1 1.3-.6 2.6-1 4.1-1.4 1.5-.3 3.1-.5 4.8-.5 2.9 0 5.6.5 7.8 1.5 2.3 1 4.2 2.4 5.7 4.3 1.6 1.8 2.7 4 3.5 6.5s1.2 5.2 1.2 8.2v34.3h-16.1V100c0-2.6-.6-4.7-1.8-6.2-1.2-1.5-3-2.2-5.4-2.2-1.8 0-3.4.4-5 1.1-1.6.8-3.1 1.8-4.5 3.1v38.4h-15.9zM474.3 134.3c-1 0-1.8-.2-2.5-.7-.7-.5-1.2-1.1-1.4-2l-1.2-4.1c-1.1 1.1-2.2 2.2-3.4 3.1s-2.5 1.7-3.8 2.4-2.8 1.2-4.4 1.6c-1.6.4-3.3.5-5.1.5-2.8 0-5.4-.6-7.8-1.9-2.4-1.2-4.5-3.1-6.2-5.4-1.7-2.4-3.1-5.2-4.1-8.7-1-3.4-1.5-7.3-1.5-11.7 0-4 .6-7.8 1.7-11.2 1.1-3.5 2.7-6.4 4.7-8.9s4.5-4.5 7.3-5.9c2.8-1.4 6-2.1 9.4-2.1 2.8 0 5.1.4 7 1.2 1.9.8 3.7 1.9 5.2 3.2V56.5h16.1v77.9h-10zM458 122.8c1.2 0 2.2-.1 3.2-.3 1-.2 1.8-.5 2.6-1 .8-.4 1.6-.9 2.3-1.6.7-.6 1.4-1.4 2.1-2.2V94.8c-1.2-1.4-2.6-2.3-4-2.8s-2.9-.8-4.4-.8c-1.5 0-2.9.3-4.1.9-1.2.6-2.3 1.5-3.3 2.8-.9 1.3-1.6 3-2.2 5.1-.5 2.1-.8 4.6-.8 7.5 0 2.8.2 5.2.6 7.2.4 1.9 1 3.5 1.7 4.7.7 1.2 1.6 2.1 2.7 2.6s2.3.8 3.6.8z"/><path class="st1" d="M496.8 134.3V56.5h16.1v29.7c2-2 4.3-3.6 6.8-4.8s5.5-1.8 9-1.8c2.8 0 5.4.6 7.8 1.8s4.5 3 6.2 5.3 3.1 5.2 4.1 8.6 1.5 7.3 1.5 11.6c0 4.1-.6 7.8-1.7 11.2-1.1 3.4-2.7 6.4-4.7 8.9s-4.5 4.5-7.3 5.9c-2.8 1.4-6 2.1-9.4 2.1-1.6 0-3-.2-4.3-.5-1.3-.3-2.4-.8-3.5-1.3-1.1-.6-2-1.3-2.9-2.1-.9-.8-1.7-1.7-2.6-2.6l-.6 2.7c-.2 1.1-.7 1.9-1.3 2.3-.6.4-1.5.6-2.5.6h-10.7zm26.3-42.6c-1.2 0-2.2.1-3.2.3-1 .2-1.8.5-2.7 1-.8.4-1.6.9-2.3 1.6-.7.6-1.4 1.4-2.1 2.2v22.9c1.2 1.4 2.5 2.3 4 2.8 1.4.5 2.9.8 4.5.8 1.5 0 2.9-.3 4.1-.9 1.2-.6 2.3-1.5 3.3-2.8.9-1.3 1.6-3 2.2-5.1.5-2.1.8-4.6.8-7.6 0-2.8-.2-5.2-.6-7.2-.4-1.9-1-3.5-1.7-4.7-.7-1.2-1.6-2.1-2.7-2.6s-2.3-.7-3.6-.7zM573.8 56.5v77.9h-16.1V56.5h16.1zM610.8 79.6c4.1 0 7.8.6 11.2 1.9 3.4 1.3 6.2 3.1 8.7 5.5s4.3 5.3 5.6 8.7c1.3 3.4 2 7.3 2 11.5 0 4.3-.7 8.2-2 11.6-1.3 3.5-3.2 6.4-5.6 8.8-2.4 2.4-5.3 4.3-8.7 5.6-3.4 1.3-7.1 2-11.2 2s-7.9-.7-11.3-2c-3.4-1.3-6.3-3.2-8.7-5.6-2.4-2.4-4.3-5.3-5.7-8.8-1.3-3.5-2-7.3-2-11.6s.7-8.1 2-11.5c1.3-3.4 3.2-6.3 5.7-8.7 2.4-2.4 5.4-4.2 8.7-5.5 3.4-1.3 7.2-1.9 11.3-1.9zm0 43.6c3.7 0 6.4-1.3 8.2-3.9 1.8-2.6 2.6-6.6 2.6-11.9 0-5.3-.9-9.3-2.6-11.9-1.8-2.6-4.5-3.9-8.2-3.9-3.8 0-6.6 1.3-8.4 3.9-1.8 2.6-2.7 6.6-2.7 11.9 0 5.3.9 9.3 2.7 11.9s4.6 3.9 8.4 3.9zM663.2 56.5v43.6h2.4c1 0 1.8-.1 2.3-.4.5-.3 1-.8 1.5-1.5L679.7 83c.6-.9 1.3-1.6 2.1-2s1.8-.6 3.1-.6h14.8l-13.9 19.2c-.7.9-1.4 1.7-2.2 2.4-.8.7-1.6 1.3-2.5 1.9 1.6 1.2 2.9 2.7 4.1 4.7l15.2 25.8h-14.6c-1.2 0-2.3-.2-3.1-.6-.9-.4-1.6-1.1-2.2-2.1l-10.2-19.1c-.5-.9-1-1.4-1.5-1.7-.5-.3-1.3-.4-2.3-.4h-3.1v23.9h-16.1V56.5h15.9z"/></g></svg>